<?xml version="1.0" standalone="no"?>
<!DOCTYPE svg PUBLIC "-//W3C//DTD SVG 20010904//EN"
 "http://www.w3.org/TR/2001/REC-SVG-20010904/DTD/svg10.dtd">
<svg version="1.0" xmlns="http://www.w3.org/2000/svg"
 width="498.000000pt" height="498.000000pt" viewBox="0 0 498.000000 498.000000"
 preserveAspectRatio="xMidYMid meet">
<metadata>
Created by potrace 1.14, written by Peter Selinger 2001-2017
</metadata>
<g transform="translate(0.000000,498.000000) scale(0.100000,-0.100000)"
fill="#000000" stroke="none">
<path d="M1040 3549 c0 -6 15 -38 34 -72 19 -34 199 -390 401 -792 201 -401
370 -734 374 -738 9 -9 191 351 191 377 0 15 -180 375 -507 1016 -52 102 -102
193 -110 203 -14 15 -37 17 -200 17 -125 0 -183 -3 -183 -11z"/>
<path d="M2350 3541 c-91 -29 -142 -60 -210 -130 -119 -122 -148 -212 -146
-462 l1 -174 91 2 c74 1 105 7 160 29 159 63 278 203 308 361 7 38 12 138 12
228 l-1 160 -80 1 c-51 1 -100 -4 -135 -15z"/>
<path d="M2198 2712 c-42 -21 -58 -37 -77 -75 -55 -108 -2 -235 110 -264 38
-10 58 -10 112 1 37 8 41 14 37 51 -3 29 -19 36 -79 31 -49 -4 -57 -2 -83 24
-68 68 -3 186 89 161 40 -10 59 -4 72 26 9 19 9 29 0 39 -10 12 -23 16 -101
28 -17 3 -47 -6 -80 -22z"/>
<path d="M2466 2721 c-6 -9 -9 -217 -3 -241 15 -67 39 -92 104 -110 50 -14 95
-8 141 20 52 32 63 72 60 213 l-3 122 -34 3 c-18 2 -38 -1 -43 -6 -5 -5 -11
-62 -12 -127 -2 -129 -10 -145 -67 -145 -46 0 -56 28 -58 152 -1 61 -4 115 -7
120 -7 11 -71 10 -78 -1z"/>
<path d="M2853 2718 c-5 -7 -8 -68 -7 -135 3 -138 15 -172 67 -200 44 -23 133
-22 175 2 53 32 63 67 60 212 l-3 128 -34 3 c-18 2 -38 -1 -43 -6 -6 -6 -10
-59 -10 -118 0 -129 -10 -154 -63 -154 -23 0 -38 6 -44 18 -5 10 -10 69 -10
131 -1 62 -3 116 -5 120 -8 13 -73 12 -83 -1z"/>
<path d="M2258 2568 c-5 -14 11 -58 22 -58 3 0 15 6 26 14 15 12 17 18 8 33
-13 22 -50 29 -56 11z"/>
<path d="M2485 1820 c-14 -5 -31 -36 -53 -96 -19 -49 -37 -98 -42 -109 -25
-55 -60 -150 -60 -162 0 -14 47 -18 67 -5 6 4 26 49 43 101 44 128 56 155 64
143 4 -6 24 -61 46 -122 22 -61 41 -114 44 -118 3 -4 21 -9 40 -10 26 -2 36 1
36 12 0 8 -29 90 -64 182 -65 172 -83 199 -121 184z"/>
<path d="M5 1811 c-5 -9 101 -307 126 -352 6 -12 21 -19 39 -19 30 0 38 11 70
100 7 19 19 49 25 65 85 208 86 215 41 215 -33 0 -48 -24 -93 -147 -20 -57
-40 -103 -44 -103 -3 0 -23 51 -44 113 -21 61 -42 118 -48 125 -11 14 -63 16
-72 3z"/>
<path d="M435 1810 c-8 -13 -9 -346 0 -359 8 -14 52 -14 61 0 9 15 9 343 0
357 -9 15 -52 16 -61 2z"/>
<path d="M600 1785 c0 -37 3 -38 57 -37 18 1 36 -4 40 -11 4 -6 9 -68 9 -137
2 -176 -1 -162 37 -158 l32 3 5 142 c3 78 8 144 11 147 6 6 45 14 75 15 27 1
38 26 24 52 -10 17 -23 19 -150 19 l-140 0 0 -35z"/>
<path d="M1294 1807 c-2 -7 -3 -91 -2 -187 l3 -175 122 -2 c123 -2 123 -2 129
23 10 41 -8 51 -85 49 -38 -2 -75 1 -82 6 -10 6 -14 43 -15 146 -1 76 -2 141
-3 146 -2 12 -61 8 -67 -6z"/>
<path d="M1614 1807 c-2 -7 -3 -91 -2 -187 l3 -175 33 -3 c35 -4 34 -7 36 85
1 28 4 54 7 57 11 12 131 9 138 -3 4 -7 7 -36 6 -66 -2 -60 9 -79 47 -73 l23
3 0 185 0 185 -32 3 c-36 4 -44 -13 -39 -78 5 -64 -4 -73 -68 -74 -32 -1 -62
2 -69 6 -6 3 -12 35 -13 70 -1 35 -2 66 -3 71 -2 12 -61 8 -67 -6z"/>
<path d="M2006 1798 c-4 -20 -2 -333 2 -349 1 -3 58 -6 127 -7 112 0 126 2
135 18 6 10 7 26 4 34 -6 17 -23 19 -117 17 -65 -2 -87 10 -87 45 0 31 23 40
98 39 64 -1 83 8 78 38 -4 28 -15 32 -86 33 -81 2 -92 7 -86 42 2 15 5 30 5
35 1 4 44 7 97 7 l95 0 -3 33 -3 32 -127 3 c-126 3 -128 2 -132 -20z"/>
<path d="M2759 1798 c-4 -124 -3 -323 3 -338 6 -17 18 -19 118 -19 116 1 142
10 135 46 -2 10 -4 20 -4 23 -1 3 -37 5 -81 5 -50 -1 -84 3 -90 10 -5 6 -11
74 -12 151 l-3 139 -32 3 c-29 3 -33 0 -34 -20z"/>
<path d="M3009 1799 c-15 -29 6 -49 55 -51 20 -1 39 -5 42 -9 2 -4 5 -71 5
-149 0 -152 2 -159 54 -146 l25 6 0 145 c0 131 2 145 18 147 9 1 24 2 32 4 8
1 25 2 38 3 18 1 22 7 22 36 l0 35 -140 0 c-132 0 -140 -1 -151 -21z"/>
<path d="M3377 1814 c-4 -4 -7 -87 -7 -185 0 -188 0 -188 50 -185 24 1 25 4
28 74 l3 72 37 1 c20 0 50 2 65 3 38 2 45 -10 49 -84 l3 -65 33 -2 c23 -1 32
3 33 15 1 23 1 300 0 335 -1 26 -4 28 -33 25 l-33 -3 -3 -72 c-2 -61 -6 -73
-20 -74 -18 -1 -98 -1 -119 0 -8 1 -13 26 -15 74 l-3 72 -30 3 c-17 2 -34 0
-38 -4z"/>
<path d="M3954 1805 c-113 -47 -158 -205 -87 -305 35 -49 81 -72 154 -78 64
-5 123 19 159 65 l21 27 -23 18 c-30 23 -37 23 -79 -6 -45 -31 -86 -37 -122
-19 -33 16 -67 68 -67 101 0 40 28 91 60 111 39 23 79 19 131 -16 37 -24 38
-25 63 -6 33 24 32 32 -6 65 -54 46 -149 66 -204 43z"/>
<path d="M1038 1803 c-10 -2 -18 -9 -18 -15 0 -5 -25 -76 -55 -156 -30 -81
-55 -152 -55 -158 0 -17 29 -25 49 -14 10 5 32 49 51 102 18 51 37 102 43 112
9 18 10 17 22 -10 6 -16 24 -66 40 -111 20 -61 33 -84 49 -90 34 -11 46 -12
52 -2 7 12 -115 331 -130 341 -12 8 -21 8 -48 1z"/>
<path d="M4274 1795 c-3 -8 -4 -76 -2 -152 3 -116 6 -143 23 -167 24 -36 71
-56 132 -56 106 0 143 28 158 120 9 55 10 248 1 257 -4 4 -20 8 -36 9 -36 3
-41 -11 -39 -101 4 -192 -5 -215 -86 -215 -68 0 -76 19 -77 177 0 83 -4 131
-12 135 -19 13 -56 9 -62 -7z"/>
<path d="M4662 1793 c-4 -10 -7 -74 -6 -144 2 -137 13 -175 61 -206 35 -23
156 -27 195 -7 51 26 57 48 63 211 l6 151 -25 6 c-53 13 -56 6 -56 -144 0
-159 -5 -170 -81 -170 -78 1 -83 10 -83 165 -1 109 -4 138 -16 145 -23 15 -49
12 -58 -7z"/>
</g>
</svg>
