<?xml version="1.0" encoding="UTF-8"?>
<!-- Generated by Pixelmator Pro 3.3.6 -->
<svg width="44" height="33" viewBox="0 0 44 33" xmlns="http://www.w3.org/2000/svg">
    <g id="Group">
        <g id="g1">
            <path id="Path" fill="none" stroke="none" d="M 42.999973 16.499985 C 42.999973 25.060394 33.3741 31.999975 21.499985 31.999975 C 9.625871 31.999975 -1e-06 25.060394 -1e-06 16.499985 C -1e-06 7.939579 9.625871 0.999996 21.499985 0.999996 C 33.3741 0.999996 42.999973 7.939579 42.999973 16.499985 Z"/>
            <path id="path1" fill="none" stroke="none" d="M 20.470987 17.945984 C 18.492987 12.408989 15.586988 7.064991 14.38599 4.950993 C 14.033991 4.331993 13.59899 3.764992 13.09599 3.260994 L 10.542993 0.707996 C 10.151993 0.316994 9.128993 0.707996 9.128993 0.707996 L 7.496994 1.733994 L 7.334994 4.052994 L 6.772994 3.999992 C 6.254995 3.999992 5.834995 4.419994 5.834995 4.937992 C 5.834995 5.457993 6.247995 5.90699 6.767994 5.898991 C 8.675993 5.868992 10.334992 7.499992 10.334992 7.499992 L 12.334991 7.499992 C 12.65499 7.819992 13.47399 8.86599 13.662991 9.938988 C 13.769991 10.549988 13.816991 11.167988 13.78199 11.786989 C 13.457991 17.621984 14.834988 18.999983 14.834988 18.999983 C 9.334993 15.499987 0.015999 16.035984 0.015999 16.035984 L 0.208999 19.051983 L 2.999997 23.999981 C 3.918996 24.211981 3.743996 23.373981 4.764996 23.495981 C 10.963992 24.23698 18.334986 23.499981 18.334986 23.499981 C 19.834986 23.499981 20.292986 22.706982 20.999985 21.999981 C 21.999985 20.999983 20.848988 19.003983 20.470987 17.945984 Z"/>
            <path id="path2" fill="none" stroke="none" d="M 22.912985 17.945984 C 24.890984 12.408989 27.796982 7.064991 28.99798 4.950993 C 29.349981 4.331993 29.784981 3.764992 30.287979 3.260994 L 32.840977 0.707996 C 33.231976 0.316994 34.254978 0.707996 34.254978 0.707996 L 35.813976 1.999996 L 36.048977 4.052994 L 36.610977 3.999992 C 37.128979 3.999992 37.548977 4.419994 37.548977 4.937992 C 37.548977 5.457993 37.135979 5.90699 36.615978 5.898991 C 34.707977 5.868992 33.048977 7.499992 33.048977 7.499992 L 31.048981 7.499992 C 30.728981 7.819992 29.909981 8.86599 29.720982 9.938988 C 29.613981 10.549988 29.56698 11.167988 29.60198 11.786989 C 29.925982 17.621984 28.548981 18.999983 28.548981 18.999983 C 34.048977 15.499987 43.548973 15.999985 43.548973 15.999985 L 43.383972 18.999983 L 40.383972 23.999981 C 39.464973 24.211981 39.639973 23.373981 38.618973 23.495981 C 32.419975 24.23698 25.048983 23.499981 25.048983 23.499981 C 23.548985 23.499981 23.090984 22.706982 22.383986 21.999981 C 21.383986 20.999983 22.534985 19.003983 22.912985 17.945984 Z"/>
            <path id="path3" fill="#ffffff" stroke="none" d="M 41.831974 9.325991 C 41.520973 8.910992 41.187973 8.51799 40.839973 8.138992 C 40.780972 8.074989 40.716972 8.015991 40.656975 7.952991 C 40.347973 7.626991 40.028973 7.313992 39.696972 7.014992 C 39.670975 6.991989 39.643974 6.96999 39.617973 6.946991 C 39.030972 6.424992 38.416973 5.934994 37.772972 5.492992 C 37.843975 5.317993 37.882973 5.128994 37.882973 4.937992 C 37.882973 4.145992 37.239979 3.500996 36.401978 3.500996 C 36.400978 3.500996 36.398975 3.500996 36.397976 3.500996 L 36.382977 3.502995 L 36.382977 2.319992 C 36.382977 1.785995 36.094978 1.287994 35.632977 1.020996 L 34.268978 0.239994 C 34.047977 0.154995 32.912975 -0.238003 32.322979 0.352997 L 30.485981 2.190994 C 30.10498 2.084995 29.595982 1.940994 29.274981 1.864994 C 26.892982 1.287994 24.445982 1.013996 21.999985 0.999996 C 18.968987 0.995995 15.904989 1.389996 12.981991 2.274994 L 11.060991 0.353996 C 10.470992 -0.236004 9.335994 0.154995 9.042994 0.274994 L 7.749994 1.020996 C 7.287994 1.287994 6.999994 1.785995 6.999994 2.319992 L 6.999994 3.505993 L 6.937994 3.499992 C 6.144996 3.499992 5.499995 4.145992 5.499995 4.937992 C 5.499995 5.248993 5.602995 5.551991 5.782995 5.802994 C 4.804996 6.51799 3.879996 7.314991 3.060997 8.224991 C 2.745997 8.574989 2.444997 8.939991 2.160997 9.32099 C 0.637998 11.345989 0.060999 13.869987 -1e-06 16.499985 C -0.035001 19.127983 0.454998 21.722982 1.931998 23.842981 C 3.409997 25.974977 5.382995 27.696976 7.555994 29.005978 C 11.933991 31.614979 16.991989 32.754974 21.999985 32.851974 C 24.510983 32.825974 27.022982 32.532974 29.470982 31.927977 C 31.912975 31.303978 34.280975 30.345978 36.456978 29.027977 C 38.619972 27.699978 40.599972 25.986979 42.073975 23.84798 C 43.549973 21.725983 44.00597 19.128983 43.967968 16.500984 C 43.904968 13.869987 43.356972 11.347988 41.831974 9.325991 Z M 38.792973 8.138992 C 39.021973 8.363991 39.240974 8.597988 39.454975 8.835991 C 39.550972 8.942989 39.649975 9.046991 39.742973 9.155991 C 40.035973 9.502991 40.315975 9.858988 40.570972 10.231989 C 41.658974 11.810989 42.355972 13.621986 42.527973 15.473988 C 40.253975 15.442987 34.083977 15.587986 29.485981 17.815985 C 29.82098 16.682985 30.10498 14.799986 29.93498 11.757988 C 29.904982 11.205988 29.942982 10.622988 30.047981 10.024988 C 30.186981 9.234991 30.749981 8.40699 31.101982 7.998989 L 31.828976 7.998989 C 32.559978 7.998989 33.260979 7.77499 33.853977 7.35199 C 34.477978 6.90799 35.412975 6.370991 36.441978 6.397991 C 36.513977 6.397991 36.580978 6.367992 36.651978 6.35799 C 36.918976 6.549992 37.187977 6.74099 37.443977 6.944992 C 37.519978 7.005989 37.593979 7.068993 37.668976 7.130989 C 37.941975 7.354992 38.206974 7.58799 38.463974 7.826992 C 38.575974 7.929993 38.685974 8.033993 38.792973 8.138992 Z M 21.999985 1.999996 C 24.368982 2.025993 26.733982 2.302994 29.026981 2.869995 C 29.234982 2.922993 29.43898 2.987995 29.64398 3.050995 C 29.161982 3.553993 28.737982 4.104992 28.397982 4.702991 C 27.22298 6.770992 24.273983 12.185989 22.276985 17.777985 C 22.201984 17.985985 22.113985 18.207985 22.021984 18.437984 C 21.909985 18.718985 21.795984 19.009983 21.690985 19.305983 C 21.586985 19.009983 21.471985 18.717985 21.359985 18.437984 C 21.267984 18.207985 21.179985 17.985985 21.104984 17.777985 C 19.104986 12.178989 16.15799 6.76899 14.983988 4.702991 C 14.686991 4.179993 14.31699 3.698994 13.90999 3.246994 C 16.521988 2.460995 19.263987 2.053993 21.999985 1.999996 Z M 3.434997 10.237989 C 3.685997 9.873989 3.958996 9.52499 4.245996 9.185991 C 4.339996 9.07399 4.441996 8.967991 4.539996 8.85899 C 4.741996 8.633991 4.947996 8.410992 5.164996 8.196991 C 5.279995 8.082993 5.397995 7.972992 5.515995 7.861992 C 5.744995 7.648991 5.978995 7.44099 6.219995 7.23999 C 6.318995 7.15699 6.417994 7.07399 6.518994 6.992992 C 6.761994 6.799992 7.013994 6.616993 7.266994 6.434994 C 8.152993 6.523991 8.973993 6.956989 9.528993 7.352989 C 10.122993 7.77599 10.822992 7.999992 11.554992 7.999992 L 12.281991 7.999992 C 12.63399 8.40699 13.19699 9.234991 13.335991 10.025988 C 13.44099 10.622988 13.478991 11.205988 13.448991 11.758989 C 13.278991 14.800987 13.56299 16.685986 13.89799 17.817986 C 9.704992 15.788986 4.163996 15.484987 1.472998 15.473988 C 1.647998 13.622986 2.345997 11.813988 3.434997 10.237989 Z M 4.235996 23.270981 C 4.043996 23.046982 3.839996 22.833981 3.663997 22.59798 C 2.328997 20.825983 1.489998 18.704985 1.425998 16.499985 C 1.425998 16.491985 1.426998 16.482985 1.426998 16.474985 C 4.304996 16.480986 10.652992 16.825985 14.731991 19.421984 C 14.942989 19.555983 15.215988 19.509983 15.377989 19.317984 C 15.539989 19.127983 15.530989 18.840984 15.363989 18.655985 C 15.351988 18.641985 14.14599 17.233984 14.44799 11.813988 C 14.48299 11.183989 14.44099 10.523989 14.321991 9.851988 C 14.103991 8.616989 13.188991 7.479992 12.85499 7.145992 C 12.759991 7.05299 12.63199 6.999992 12.49999 6.999992 L 11.554992 6.999992 C 11.032991 6.999992 10.533993 6.840992 10.109992 6.537991 C 9.364993 6.006992 8.184994 5.390991 6.924994 5.397991 C 6.793994 5.401993 6.698995 5.334991 6.643994 5.280991 C 6.551994 5.191994 6.499994 5.066994 6.499994 4.937992 C 6.499994 4.695992 6.695994 4.499992 6.890994 4.497993 L 7.452994 4.551994 C 7.563994 4.558994 7.668994 4.524994 7.760994 4.467995 L 8.146994 4.853992 C 8.241993 4.948994 8.369993 4.999992 8.499993 4.999992 C 8.552994 4.999992 8.605993 4.990993 8.657993 4.974995 L 9.864992 4.572994 L 11.145991 5.853992 C 11.243992 5.950993 11.371991 5.999992 11.499991 5.999992 C 11.627992 5.999992 11.755991 5.950993 11.853992 5.853992 C 12.048991 5.658993 12.048991 5.341991 11.853992 5.146992 L 10.706992 3.999992 L 10.852992 3.853992 C 10.950993 3.755993 10.999991 3.627995 10.999991 3.499992 C 10.999991 3.371994 10.950993 3.243996 10.853992 3.145992 L 9.853992 2.145996 C 9.658993 1.950996 9.341993 1.950996 9.146994 2.145996 C 9.048993 2.243996 8.999993 2.371994 8.999993 2.499992 C 8.999993 2.627995 9.048993 2.755993 9.145993 2.853992 L 9.791992 3.499992 L 9.728992 3.562992 L 8.633993 3.927994 L 7.999993 3.292995 L 7.999993 2.319992 C 7.999993 2.141994 8.095993 1.975994 8.249993 1.885994 L 9.469993 1.173996 C 9.834992 1.034996 10.261992 0.994995 10.352992 1.059994 L 12.90699 3.613995 C 13.38199 4.088993 13.78899 4.620995 14.11599 5.196991 C 15.276989 7.23999 18.191986 12.589989 20.164988 18.113985 C 20.242987 18.332985 20.335987 18.565985 20.431986 18.807985 C 20.778986 19.678984 21.172985 20.665983 21.011984 21.390984 C 20.807987 22.308981 19.727987 22.999981 18.489986 22.999981 C 18.419987 23.001982 11.366991 23.138981 5.064996 23.010981 C 4.797996 23.001982 4.508996 23.113981 4.235996 23.270981 Z M 35.216976 26.917978 C 33.236977 28.036976 31.060982 28.815979 28.831982 29.336979 C 26.603983 29.875977 24.303984 30.134975 21.999985 30.148975 C 17.40799 30.158978 12.740991 29.197979 8.769994 26.940981 C 7.368995 26.141977 6.060995 25.176979 4.937996 24.04998 C 4.973996 24.03598 5.020996 24.01198 5.044996 24.010981 C 11.366991 24.137981 18.438986 24.00098 18.499987 23.999981 C 19.895987 23.999981 21.115984 23.326981 21.691984 22.329981 C 22.266985 23.326981 23.485985 23.999981 24.873983 23.999981 C 24.944983 24.001982 32.019978 24.138981 38.335972 24.010981 C 38.424973 24.013981 38.607975 24.112982 38.818974 24.259981 C 37.747974 25.288982 36.530975 26.18498 35.216976 26.917978 Z M 40.328972 22.592981 C 40.081974 22.921982 39.802975 23.227982 39.525974 23.533981 C 39.155972 23.260981 38.715973 23.009981 38.333973 23.009981 C 38.328972 23.009981 38.322975 23.009981 38.316975 23.009981 C 32.016975 23.134981 24.962982 22.999981 24.882982 22.998981 C 23.654985 22.998981 22.574986 22.307981 22.370985 21.390984 C 22.209984 20.665983 22.602985 19.678984 22.950985 18.807985 C 23.046986 18.565985 23.139984 18.331985 23.217985 18.113985 C 25.188982 12.595989 28.10498 7.242992 29.266981 5.196991 C 29.593981 4.620995 30.00098 4.088993 30.475983 3.613995 L 33.025978 1.062996 C 33.121979 0.999996 33.547977 1.036995 33.840977 1.139996 L 35.133976 1.886993 C 35.287975 1.976994 35.383976 2.142994 35.383976 2.320995 L 35.383976 3.293995 L 34.748978 3.928993 L 33.653976 3.563995 L 33.590977 3.499992 L 34.236977 2.853992 C 34.334976 2.755993 34.382977 2.627995 34.382977 2.499992 C 34.382977 2.371994 34.333977 2.243996 34.236977 2.145996 C 34.041977 1.950996 33.724976 1.950996 33.529976 2.145996 L 32.529976 3.145992 C 32.431976 3.243996 32.383976 3.371994 32.383976 3.499992 C 32.383976 3.627995 32.432976 3.755993 32.529976 3.853992 L 32.676975 3.999992 L 31.530979 5.145992 C 31.335979 5.340992 31.335979 5.657993 31.530979 5.852993 C 31.627975 5.950993 31.755978 5.999992 31.883976 5.999992 C 32.011978 5.999992 32.139977 5.950993 32.237976 5.853992 L 33.518978 4.572994 L 34.725979 4.974995 C 34.776978 4.990993 34.830978 4.999992 34.883976 4.999992 C 35.013977 4.999992 35.141975 4.948994 35.237976 4.853992 L 35.623978 4.467995 C 35.715977 4.524994 35.820976 4.559994 35.931976 4.551994 L 36.446976 4.499992 C 36.688976 4.499992 36.884975 4.695992 36.884975 4.937992 C 36.884975 5.066994 36.832977 5.191994 36.741978 5.280991 C 36.685978 5.335991 36.584976 5.389992 36.459976 5.397991 C 35.180977 5.408993 34.020977 6.005993 33.274979 6.537991 C 32.850979 6.840992 32.351978 6.999992 31.829979 6.999992 L 30.88398 6.999992 C 30.75098 6.999992 30.623981 7.05299 30.52998 7.145992 C 30.19598 7.479992 29.279982 8.618992 29.062981 9.851988 C 28.944981 10.525988 28.901981 11.185989 28.936981 11.814989 C 29.238981 17.233984 28.032982 18.641985 28.029982 18.645985 C 27.849981 18.826984 27.833981 19.113983 27.992981 19.311983 C 28.151981 19.510983 28.43498 19.557983 28.651981 19.420982 C 33.059978 16.615984 40.227974 16.451984 42.573975 16.478985 C 42.573975 16.485985 42.574974 16.491985 42.574974 16.498985 C 42.506973 18.704985 41.665974 20.823982 40.328972 22.592981 Z"/>
        </g>
    </g>
</svg>
